<svg xmlns="http://www.w3.org/2000/svg" viewBox="0 0 1200 900" role="img" aria-labelledby="t"><title id="t">Florida ATM service areas</title>
<defs><linearGradient id="bg" x1="0" y1="0" x2="1" y2="1"><stop offset="0" stop-color="#f7f4ee"/><stop offset="1" stop-color="#ece6da"/></linearGradient><filter id="sh" x="-10%" y="-10%" width="120%" height="130%"><feDropShadow dx="0" dy="14" stdDeviation="14" flood-color="#1f4e8c" flood-opacity=".18"/></filter>
<g id="pin"><path d="M0 0 C-16 -22 -22 -32 -22 -44 A22 22 0 1 1 22 -44 C22 -32 16 -22 0 0Z" fill="#b22234"/><circle cx="0" cy="-44" r="9" fill="#fff"/></g></defs>
<rect width="1200" height="900" fill="url(#bg)"/><circle cx="1020" cy="150" r="130" fill="#ffd24d" opacity=".18"/>
<g filter="url(#sh)"><path d="M340 160 C 520 90, 760 110, 880 200 C 960 270, 940 420, 900 540 C 860 660, 720 740, 560 720 C 400 700, 300 600, 320 460 C 335 360, 300 250, 340 160 Z" fill="#1f4e8c"/><path d="M360 180 C 530 120, 745 135, 858 215 C 930 275, 915 415, 878 530 C 840 645, 712 718, 566 700 C 415 682, 322 590, 340 462 C 354 366, 322 262, 360 180 Z" fill="#356098"/></g>
<g fill="#ffffff" font-family="Inter,Arial" font-size="15" font-weight="600"><use href="#pin" transform="translate(560,300)"/><text x="580" y="272">Miami</text><use href="#pin" transform="translate(700,380)"/><text x="720" y="352">Fort Lauderdale</text><use href="#pin" transform="translate(480,440)"/><text x="500" y="412">West Palm Beach</text><use href="#pin" transform="translate(640,520)"/><text x="660" y="492">Orlando</text><use href="#pin" transform="translate(760,250)"/><text x="780" y="222">Tampa</text><use href="#pin" transform="translate(420,330)"/><text x="440" y="302">Fort Myers</text><use href="#pin" transform="translate(700,600)"/><text x="720" y="572">Jacksonville</text><use href="#pin" transform="translate(520,600)"/><text x="540" y="572">Tallahassee</text></g>
<g filter="url(#sh)"><rect x="70" y="620" width="330" height="140" rx="18" fill="#fff"/><text x="94" y="656" fill="#5b6172" font-family="Inter,Arial" font-size="12" font-weight="700" letter-spacing="1.5">SERVICE AREA</text><text x="94" y="694" fill="#1f4e8c" font-family="Inter,Arial" font-size="24" font-weight="800">All of Florida</text><text x="94" y="724" fill="#5b6172" font-family="Inter,Arial" font-size="14">Placed, cash-loaded, and serviced</text></g>
<g filter="url(#sh)"><rect x="880" y="560" width="250" height="200" rx="18" fill="#fff"/><text x="904" y="596" fill="#5b6172" font-family="Inter,Arial" font-size="12" font-weight="700" letter-spacing="1.5">PART OF</text><text x="904" y="640" fill="#b22234" font-family="Inter,Arial" font-size="26" font-weight="800">US ATM Experts</text><text x="904" y="676" fill="#1f4e8c" font-family="Inter,Arial" font-size="15" font-weight="700">Nationwide network</text><text x="904" y="700" fill="#5b6172" font-family="Inter,Arial" font-size="14">Local Florida service</text></g>
</svg>